<svg width="28" height="28" viewBox="0 0 28 28" fill="none" xmlns="http://www.w3.org/2000/svg">
<path d="M27.4341 21.8411H26.3208V18.3788C26.3208 18.0665 26.0674 17.8133 25.7549 17.8133H24.3615V14.3511C24.3615 14.0388 24.1082 13.7856 23.7957 13.7856H21.1216V10.3233C21.1216 10.011 20.8683 9.75782 20.5558 9.75782H19.5705V6.29567C19.5705 5.98332 19.3172 5.73016 19.0047 5.73016H17.357V2.26795C17.357 1.9556 17.1037 1.70243 16.7911 1.70243H16.3825C16.3934 1.65864 16.3992 1.6127 16.3992 1.56552C16.3992 1.25316 16.1459 1 15.8333 1H15.2747C14.9622 1 14.7088 1.25316 14.7088 1.56552C14.7088 1.6127 14.7146 1.65857 14.7256 1.70243H13.2746C13.2855 1.65864 13.2913 1.6127 13.2913 1.56552C13.2913 1.25316 13.038 1 12.7254 1H12.1668C11.8543 1 11.601 1.25316 11.601 1.56552C11.601 1.6127 11.6068 1.65857 11.6177 1.70243H11.2089C10.8963 1.70243 10.643 1.9556 10.643 2.26795V5.73028H8.99541C8.68286 5.73028 8.42954 5.98345 8.42954 6.2958V9.75795H7.44449C7.13194 9.75795 6.87862 10.0111 6.87862 10.3235V13.7857H4.20421C3.89166 13.7857 3.63834 14.0389 3.63834 14.3512V17.8135H2.24505C1.9325 17.8135 1.67918 18.0666 1.67918 18.379V21.8412H0.565867C0.25332 21.8412 0 22.0944 0 22.4068V26.4345C0 26.7468 0.25332 27 0.565867 27H27.4341C27.7467 27 28 26.7468 28 26.4345V22.4068C28 22.0943 27.7467 21.8411 27.4341 21.8411ZM25.189 18.9444V21.8411H18.4841V18.9444H25.189ZM23.2298 14.9167V17.8134H17.9183H16.5249V14.9167H23.2298ZM19.9899 10.8889V13.7857H15.9591H14.566V10.8889H19.9899ZM11.7746 2.83346H16.2252V5.73028H11.7746V2.83346ZM9.56115 6.86131H18.4387V9.75795H14H9.56108V6.86131H9.56115ZM8.01023 10.8889H13.4342V13.7857H8.01023V10.8889ZM4.77007 14.9167H15.3932V17.8134H10.0817H4.77007V14.9167ZM2.81091 18.9444H9.51588V21.8411H2.81091V18.9444ZM13.4342 25.8688H1.13173V22.9722H13.4342V25.8688ZM10.6476 21.8411V18.9444H17.3524V21.8411H14.0001H10.6476ZM26.8683 25.8688H14.5659V22.9722H26.8683V25.8688Z" fill="black"/>
</svg>
