<svg width="42" height="42" viewBox="0 0 42 42" fill="none" xmlns="http://www.w3.org/2000/svg">
<g clip-path="url(#clip0_45:438)">
<path d="M35.3941 40.6H41.3C41.3 36.2397 41.3 34.8348 39.1209 33.516C35.0035 31.024 31.4923 31.3362 29.3111 29.1564C28.588 28.4326 28.455 27.6703 28.5481 27.0165C29.561 26.0995 30.4619 24.8591 31.2011 23.4892C32.1629 22.981 33.2549 21.6272 33.6266 19.9717C33.7834 19.2787 33.5118 18.6165 33.1107 18.109C33.1394 17.9487 33.1653 17.7891 33.1891 17.6323C33.5993 14.8176 33.4894 10.6274 30.4024 10.6274C29.5848 7.71051 26.2507 7.82321 23.6621 8.44971" stroke="#3E3E3E" stroke-width="2" stroke-miterlimit="10"/>
<path d="M31.2174 34.216C27.1 31.724 23.5888 32.0362 21.4076 29.8564C20.6838 29.1326 20.5515 28.3703 20.6446 27.7165C21.6575 26.7995 22.5584 25.5591 23.2976 24.1892C24.2594 23.681 25.3514 22.3272 25.7231 20.6717C25.8799 19.9787 25.6083 19.3165 25.2072 18.809C25.2359 18.6487 25.2625 18.4891 25.2856 18.3323C25.6958 15.5176 25.5859 11.3274 22.4989 11.3274C21.2277 6.78651 13.8553 9.58861 12.6891 10.2375C10.8488 11.2609 10.3322 11.0719 9.41939 13.5072C8.87409 14.9604 8.85239 16.219 8.83279 18.2217C8.83139 18.4184 8.84329 18.627 8.86429 18.8426C8.47719 19.3452 8.22169 19.9927 8.37359 20.671C8.74249 22.3153 9.82259 23.6635 10.7802 24.1773C11.385 25.2231 12.1018 26.2164 12.8865 27.0473C12.9565 27.8208 12.8767 28.9135 12.1431 29.8557C10.3056 32.2168 4.83229 32.5745 2.8793 34.216C1.6424 35.2555 0.882195 35.8505 0.700195 41.3H33.3965C33.3965 36.9397 33.3965 35.5348 31.2174 34.216Z" stroke="#3E3E3E" stroke-width="2" stroke-miterlimit="10"/>
</g>
<defs>
<clipPath id="clip0_45:438">
<rect width="42" height="42" fill="white"/>
</clipPath>
</defs>
</svg>
