<svg width="43" height="43" viewBox="0 0 43 43" fill="none" xmlns="http://www.w3.org/2000/svg">
<path d="M34.5465 8.73535C30.6982 8.46518 26.837 9.02915 23.2268 10.3887C22.5441 10.7324 21.9542 11.2353 21.5068 11.855C21.0598 11.2349 20.4697 10.7319 19.7868 10.3887C16.1757 9.03224 12.3152 8.46837 8.46701 8.73535C7.63164 8.76331 6.84007 9.1158 6.26039 9.71796C5.68072 10.3201 5.35859 11.1245 5.36241 11.9603V29.0786C5.35552 29.9249 5.68424 30.7394 6.2766 31.3439C6.86895 31.9483 7.67667 32.2934 8.52291 32.3036C11.2212 32.3488 17.8432 32.6261 21.0445 34.1849C21.1865 34.2544 21.3422 34.2911 21.5003 34.2924C21.6637 34.2932 21.825 34.2557 21.9712 34.1827C25.1725 32.624 31.7945 32.3466 34.4928 32.3015C35.339 32.2913 36.1467 31.9462 36.7391 31.3417C37.3314 30.7373 37.6601 29.9228 37.6533 29.0765V11.9582C37.6565 11.1224 37.3338 10.3182 36.7538 9.71646C36.1737 9.1147 35.3819 8.76275 34.5465 8.73535ZM7.49736 29.0765V11.9582C7.49714 11.6804 7.60448 11.4133 7.79687 11.2129C7.98926 11.0125 8.25177 10.8943 8.52936 10.8832C12.0329 10.6327 15.5498 11.1258 18.8494 12.3301C19.3309 12.5725 19.7342 12.9458 20.013 13.4071C20.2918 13.8685 20.4347 14.3991 20.4253 14.9381V31.6457C16.5481 30.6294 12.5548 30.1235 8.54656 30.1407C8.26674 30.1373 7.99957 30.0237 7.80311 29.8244C7.60665 29.6251 7.49677 29.3563 7.49736 29.0765ZM35.5033 29.0765C35.505 29.216 35.4792 29.3544 35.4274 29.4839C35.3756 29.6134 35.2988 29.7315 35.2013 29.8313C35.1039 29.9311 34.9878 30.0108 34.8595 30.0657C34.7313 30.1207 34.5935 30.1498 34.4541 30.1515C30.4467 30.1306 26.4537 30.6307 22.5753 31.6393V14.9381C22.5658 14.3996 22.7082 13.8694 22.9861 13.4081C23.2641 12.9469 23.6664 12.5733 24.147 12.3301C26.9687 11.2472 29.9803 10.7462 33.0007 10.8574C33.5425 10.8574 34.0391 10.8574 34.4691 10.8832C34.7471 10.8938 35.0101 11.0117 35.203 11.2121C35.3958 11.4126 35.5035 11.68 35.5033 11.9582V29.0765Z" fill="black"/>
</svg>
