<svg width="28" height="28" viewBox="0 0 28 28" fill="none" xmlns="http://www.w3.org/2000/svg">
<g clip-path="url(#clip0)">
<path d="M27.9999 3.07478C27.9999 4.74325 26.6474 6.09602 24.9787 6.09602C23.3102 6.09602 21.9574 4.74325 21.9574 3.07478C21.9574 1.40606 23.3102 0.0535278 24.9787 0.0535278C26.6474 0.0535278 27.9999 1.40606 27.9999 3.07478Z" fill="black"/>
<path d="M19.3657 7.95899C19.8385 7.48471 19.8385 6.71735 19.3657 6.24306L14.9688 1.84863C14.379 1.25879 13.4228 1.25879 12.8329 1.84863L6.92517 7.75762C6.45261 8.2319 6.45261 8.99926 6.92517 9.47379C7.40486 9.93603 8.16362 9.93726 8.64479 9.47674L13.5447 4.5768C13.7414 4.38011 14.0603 4.38011 14.2568 4.5768L17.6461 7.96612C18.1206 8.43917 18.8885 8.43917 19.3627 7.96612L19.3657 7.95899Z" fill="black"/>
<path d="M26.9928 13.1456H21.4539C21.1758 13.1456 20.9503 12.9201 20.9503 12.6421V10.8364L18.9362 12.8506V14.6562C18.9362 14.9343 19.1616 15.1598 19.4397 15.1598H26.9928C27.5492 15.1598 27.9999 14.7088 27.9999 14.1527C27.9999 13.5965 27.5492 13.1456 26.9928 13.1456Z" fill="black"/>
<path d="M8.9622 17.3719L0.355528 25.9798C-0.118509 26.4536 -0.118509 27.2222 0.355528 27.6959V27.6979C0.829811 28.1712 1.59742 28.1712 2.0717 27.6979L10.6813 19.0912L8.9622 17.3719Z" fill="black"/>
<path d="M12.1651 26.2084L19.171 22.4107C19.5791 22.1769 19.855 21.7661 19.9172 21.2996C19.9794 20.8335 19.8208 20.3646 19.4881 20.0319L13.6581 14.2031C13.1828 13.7276 12.4122 13.7276 11.937 14.2031C11.4617 14.6784 11.4617 15.4489 11.937 15.9242L16.3506 20.3376C16.4634 20.4504 16.5163 20.61 16.493 20.7678C16.4693 20.9257 16.3725 21.0631 16.2318 21.1384L10.8746 23.9929C10.3037 24.3302 10.1099 25.0637 10.4394 25.639L10.5114 25.7708C10.85 26.3449 11.5871 26.5399 12.1651 26.2084Z" fill="black"/>
</g>
<defs>
<clipPath id="clip0">
<rect width="28" height="28" fill="white"/>
</clipPath>
</defs>
</svg>
