<svg width="51" height="51" viewBox="0 0 51 51" fill="none" xmlns="http://www.w3.org/2000/svg">
<path d="M43.0312 10.2623L7.33115 24.7123C6.99372 24.8485 6.78081 25.1847 6.80114 25.5482C6.8219 25.9118 7.07175 26.2214 7.42246 26.3194L18.2483 29.3267L25.1562 40.4C25.3135 40.6515 25.5879 40.8001 25.8776 40.8001C25.9286 40.8001 25.9805 40.7951 26.032 40.786C26.3756 40.7229 26.645 40.4556 26.7118 40.1128L28.2226 32.3582L38.2536 35.9649C38.4852 36.0471 38.7434 36.0263 38.9596 35.9043C39.175 35.7831 39.3265 35.5731 39.3747 35.3307L44.1833 11.2161C44.2447 10.9098 44.1327 10.5944 43.8919 10.3952C43.6508 10.1968 43.3208 10.1453 43.0312 10.2623ZM25.4559 37.6682L19.9955 28.9152L33.7658 21.4983L26.8961 30.7155C26.8945 30.7176 26.8944 30.7202 26.8928 30.7225C26.8749 30.7469 26.8694 30.7777 26.8543 30.8041C26.8097 30.8815 26.769 30.9595 26.7508 31.0435C26.7495 31.0498 26.7446 31.0545 26.7434 31.0608L25.4559 37.6682ZM37.9004 34.0308L28.9448 30.8113L37.4202 19.4397C37.6585 19.1201 37.6427 18.6777 37.3821 18.3764C37.1214 18.0734 36.6856 17.9945 36.3357 18.183L18.6925 27.6855L10.2858 25.3498L42.2081 12.4288L37.9004 34.0308Z" fill="black"/>
</svg>
