<svg width="35" height="35" viewBox="0 0 35 35" fill="none" xmlns="http://www.w3.org/2000/svg">
<path d="M34.4862 3.55469H0.513763C0.229912 3.55469 0 3.7846 0 4.06845V30.9177C0 31.2015 0.229912 31.4314 0.513763 31.4314H34.4862C34.7701 31.4314 35 31.2015 35 30.9177V4.06845C35 3.7846 34.7701 3.55469 34.4862 3.55469ZM1.02753 30.4039V7.86987H6.57532C6.85917 7.86987 7.08908 7.63969 7.08908 7.35611C7.08908 7.07226 6.85917 6.84235 6.57532 6.84235H1.02753V4.58221H33.9725V6.84235H9.04106C8.75748 6.84235 8.5273 7.07226 8.5273 7.35611C8.5273 7.63969 8.75748 7.86987 9.04106 7.86987H33.9725V30.4039H1.02753Z" fill="black"/>
<path d="M31.1644 5.71228C31.1644 5.99586 30.9345 6.22604 30.6506 6.22604C30.3671 6.22604 30.1369 5.99586 30.1369 5.71228C30.1369 5.42843 30.3671 5.19852 30.6506 5.19852C30.9345 5.19852 31.1644 5.42843 31.1644 5.71228Z" fill="black"/>
<path d="M29.5206 5.71228C29.5206 5.99586 29.2907 6.22604 29.0068 6.22604C28.7232 6.22604 28.493 5.99586 28.493 5.71228C28.493 5.42843 28.7232 5.19852 29.0068 5.19852C29.2907 5.19852 29.5206 5.42843 29.5206 5.71228Z" fill="black"/>
<path d="M32.8082 5.71228C32.8082 5.99586 32.5783 6.22604 32.2945 6.22604C32.0109 6.22604 31.7807 5.99586 31.7807 5.71228C31.7807 5.42843 32.0109 5.19852 32.2945 5.19852C32.5783 5.19852 32.8082 5.42843 32.8082 5.71228Z" fill="black"/>
<path d="M16.9521 10.13H3.80142C3.51757 10.13 3.28766 10.3599 3.28766 10.6438V27.63C3.28766 27.9139 3.51757 28.1438 3.80142 28.1438H16.9521C17.2356 28.1438 17.4658 27.9139 17.4658 27.63V10.6438C17.4658 10.3599 17.2356 10.13 16.9521 10.13ZM16.4383 27.1162H4.31519V11.1575H16.4383V27.1162Z" fill="black"/>
<path d="M31.1986 10.13H19.6918C19.4082 10.13 19.178 10.3599 19.178 10.6438V16.6711C19.178 16.9547 19.4082 17.1849 19.6918 17.1849H31.1986C31.4824 17.1849 31.7123 16.9547 31.7123 16.6711V10.6438C31.7123 10.3599 31.4824 10.13 31.1986 10.13ZM30.6848 16.1574H20.2055V11.1575H30.6848V16.1574Z" fill="black"/>
<path d="M31.1986 18.8971H19.6918C19.4082 18.8971 19.178 19.1273 19.178 19.4109V27.63C19.178 27.9139 19.4082 28.1438 19.6918 28.1438H31.1986C31.4824 28.1438 31.7123 27.9139 31.7123 27.63V19.4109C31.7123 19.1273 31.4824 18.8971 31.1986 18.8971ZM30.6848 27.1162H20.2055V19.9246H30.6848V27.1162Z" fill="black"/>
</svg>
