<svg width="36" height="36" viewBox="0 0 36 36" fill="none" xmlns="http://www.w3.org/2000/svg">
<path d="M29.25 6.75H6.75V9H7.875L8.85375 30.5325C8.89428 31.4 9.26767 32.2185 9.89627 32.8178C10.5249 33.4171 11.3603 33.7509 12.2287 33.75H23.7262C24.5947 33.7509 25.4301 33.4171 26.0587 32.8178C26.6873 32.2185 27.0607 31.4 27.1012 30.5325L28.125 9H29.25V6.75ZM24.8512 30.375C24.8512 30.6734 24.7327 30.9595 24.5217 31.1705C24.3108 31.3815 24.0246 31.5 23.7262 31.5H12.2737C11.9849 31.5004 11.7069 31.3896 11.4975 31.1906C11.2881 30.9917 11.1632 30.7198 11.1487 30.4312L10.1813 9H25.875L24.8512 30.375ZM22.5 4.5H13.5V2.25H22.5V4.5ZM16.875 24.75H14.625V15.75H16.875V24.75ZM21.375 24.75H19.125V15.75H21.375V24.75Z" fill="black"/>
</svg>
