<svg width="50" height="23" viewBox="0 0 50 23" fill="none" xmlns="http://www.w3.org/2000/svg">
<rect x="0.5" y="0.5" width="49" height="22" rx="4.5" stroke="#959595"/>
<path d="M20.264 16.07C19.5733 16.07 18.9433 15.93 18.374 15.65C17.8047 15.3607 17.3147 14.978 16.904 14.502C16.4933 14.026 16.176 13.4893 15.952 12.892C15.728 12.2853 15.616 11.6647 15.616 11.03C15.616 10.3673 15.7327 9.73733 15.966 9.14C16.1993 8.53333 16.526 7.99667 16.946 7.53C17.3753 7.054 17.87 6.68067 18.43 6.41C18.9993 6.13 19.6153 5.99 20.278 5.99C20.978 5.99 21.608 6.13467 22.168 6.424C22.7373 6.71333 23.2273 7.10067 23.638 7.586C24.0487 8.07133 24.366 8.61267 24.59 9.21C24.814 9.80733 24.926 10.414 24.926 11.03C24.926 11.702 24.8093 12.3413 24.576 12.948C24.3427 13.5453 24.0113 14.082 23.582 14.558C23.162 15.0247 22.6673 15.3933 22.098 15.664C21.538 15.9347 20.9267 16.07 20.264 16.07ZM16.33 11.03C16.33 11.5993 16.428 12.1453 16.624 12.668C16.82 13.1907 17.0907 13.6573 17.436 14.068C17.7907 14.4787 18.206 14.8053 18.682 15.048C19.1673 15.2907 19.6993 15.412 20.278 15.412C20.866 15.412 21.4027 15.286 21.888 15.034C22.3733 14.782 22.7887 14.446 23.134 14.026C23.4793 13.606 23.7407 13.1393 23.918 12.626C24.1047 12.1033 24.198 11.5713 24.198 11.03C24.198 10.4607 24.1 9.91467 23.904 9.392C23.7173 8.86933 23.4467 8.40267 23.092 7.992C22.7373 7.58133 22.3173 7.25467 21.832 7.012C21.356 6.76933 20.838 6.648 20.278 6.648C19.6807 6.648 19.1393 6.774 18.654 7.026C18.1687 7.278 17.7533 7.614 17.408 8.034C17.072 8.454 16.806 8.92533 16.61 9.448C16.4233 9.96133 16.33 10.4887 16.33 11.03ZM27.3057 16V8.72H28.0057V11.954H29.3497L31.9257 8.72H32.7517L29.9097 12.262L33.1297 16H32.2757L29.3497 12.598H28.0057V16H27.3057Z" fill="black" fill-opacity="0.56"/>
</svg>
