<svg width="15" height="15" viewBox="0 0 15 15" fill="none" xmlns="http://www.w3.org/2000/svg">
<path fill-rule="evenodd" clip-rule="evenodd" d="M3.11133 4H1C0.447715 4 0 4.44772 0 5V11.8889C0 13.5457 1.34315 14.8889 3 14.8889H8.88889C9.99346 14.8889 10.8889 13.9935 10.8889 12.8889V12.5555H6.11133C4.45448 12.5555 3.11133 11.2124 3.11133 9.55555V4Z" fill="#F3F3F3"/>
<path d="M3.88867 1.88889C3.88867 1.3366 4.33639 0.888885 4.88867 0.888885H12.7776C13.8821 0.888885 14.7776 1.78432 14.7776 2.88889V9.77777C14.7776 10.8823 13.8821 11.7778 12.7776 11.7778H6.88867C5.23182 11.7778 3.88867 10.4346 3.88867 8.77777V1.88889Z" fill="#F3F3F3"/>
</svg>
