<svg width="16" height="16" viewBox="0 0 16 16" fill="none" xmlns="http://www.w3.org/2000/svg">
<path d="M1.98145 8.10915L14.1304 8.10915" stroke="#F3F3F3" stroke-miterlimit="7.20319"/>
<line y1="-0.5" x2="4.03487" y2="-0.5" transform="matrix(0.709698 -0.704506 0.709698 0.704506 12.1362 11.0496)" stroke="#F3F3F3"/>
<line y1="-0.5" x2="4.03466" y2="-0.5" transform="matrix(0.709698 0.704506 -0.709698 0.704506 11.5635 5.93277)" stroke="#F3F3F3"/>
<line y1="-0.5" x2="4.03487" y2="-0.5" transform="matrix(-0.709698 0.704506 -0.709698 -0.704506 3.86328 5.05287)" stroke="#F3F3F3"/>
<line y1="-0.5" x2="4.03466" y2="-0.5" transform="matrix(-0.709698 -0.704506 0.709698 -0.704506 4.43604 10.1696)" stroke="#F3F3F3"/>
<path d="M7.94141 2.07689L7.94141 14.137" stroke="#F3F3F3" stroke-miterlimit="7.20319"/>
<line y1="-0.5" x2="4.03487" y2="-0.5" transform="matrix(0.709698 0.704506 -0.709698 0.704506 4.979 12.1574)" stroke="#F3F3F3"/>
<line y1="-0.5" x2="4.03466" y2="-0.5" transform="matrix(-0.709698 0.704506 -0.709698 -0.704506 10.1333 11.5891)" stroke="#F3F3F3"/>
<line y1="-0.5" x2="4.03487" y2="-0.5" transform="matrix(-0.709698 -0.704506 0.709698 -0.704506 11.02 3.94504)" stroke="#F3F3F3"/>
<line y1="-0.5" x2="4.03466" y2="-0.5" transform="matrix(0.709698 -0.704506 0.709698 0.704506 5.86572 4.51335)" stroke="#F3F3F3"/>
</svg>
