<svg width="14" height="14" viewBox="0 0 14 14" fill="none" xmlns="http://www.w3.org/2000/svg">
<path fill-rule="evenodd" clip-rule="evenodd" d="M4.90149 0C4.4281 0 4.04434 0.383759 4.04434 0.857147H0.476196C0.213196 0.857147 0 1.07034 0 1.33333C0 1.85931 0.426392 2.28572 0.952377 2.28572H13.0476C13.5736 2.28572 14 1.85931 14 1.33333C14 1.07034 13.7868 0.857147 13.5238 0.857147H10.2666C10.2666 0.383759 9.88281 0 9.40942 0H4.90149ZM2.33301 2.57143H11.6663V11C11.6663 12.6568 10.3232 14 8.66634 14H5.33301C3.67615 14 2.33301 12.6568 2.33301 11V2.57143ZM5.9108 4.85715H5.28857V10.8571H5.9108V4.85715ZM6.84424 4.85715H7.46646V10.8571H6.84424V4.85715ZM9.02213 4.85715H8.3999V10.8571H9.02213V4.85715Z" fill="#F3F3F3"/>
</svg>
